<mxfile host="app.diagrams.net" modified="2022-05-09T08:46:32.410Z" agent="5.0 (Windows)" etag="ETuCXkDNZzdLvkz_QSR-" version="18.0.2" type="github">
  <diagram id="00_8uSY0qCTc1xiecRlY" name="Page-1">
    <mxGraphModel dx="1422" dy="724" grid="1" gridSize="10" guides="1" tooltips="1" connect="1" arrows="1" fold="1" page="1" pageScale="1" pageWidth="827" pageHeight="1169" math="0" shadow="0">
      <root>
        <mxCell id="0" />
        <mxCell id="1" parent="0" />
        <mxCell id="EvmF-jl4J4cTao0oqaJv-45" value="" style="swimlane;startSize=0;fillColor=#e1d5e7;strokeColor=#9673a6;strokeWidth=3;" vertex="1" parent="1">
          <mxGeometry x="150" y="500" width="170" height="200" as="geometry" />
        </mxCell>
        <mxCell id="EvmF-jl4J4cTao0oqaJv-27" value="Serveur de base de données pour visioconférence" style="shape=cylinder3;whiteSpace=wrap;html=1;boundedLbl=1;backgroundOutline=1;size=15;" vertex="1" parent="EvmF-jl4J4cTao0oqaJv-45">
          <mxGeometry x="50" y="100" width="110" height="90" as="geometry" />
        </mxCell>
        <mxCell id="EvmF-jl4J4cTao0oqaJv-22" value="&lt;div&gt;Microservice de &lt;br&gt;&lt;/div&gt;&lt;div&gt;visioconférence&lt;br&gt;&lt;/div&gt;" style="rounded=0;whiteSpace=wrap;html=1;" vertex="1" parent="EvmF-jl4J4cTao0oqaJv-45">
          <mxGeometry x="45" y="10" width="120" height="60" as="geometry" />
        </mxCell>
        <mxCell id="EvmF-jl4J4cTao0oqaJv-21" value="" style="edgeStyle=orthogonalEdgeStyle;rounded=0;orthogonalLoop=1;jettySize=auto;html=1;" edge="1" parent="EvmF-jl4J4cTao0oqaJv-45" source="EvmF-jl4J4cTao0oqaJv-22" target="EvmF-jl4J4cTao0oqaJv-27">
          <mxGeometry relative="1" as="geometry" />
        </mxCell>
        <mxCell id="EvmF-jl4J4cTao0oqaJv-47" value="&lt;div&gt;port &lt;br&gt;&lt;/div&gt;&lt;div&gt;8080&lt;/div&gt;" style="text;html=1;align=center;verticalAlign=middle;resizable=0;points=[];autosize=1;strokeColor=#9673a6;fillColor=#e1d5e7;" vertex="1" parent="EvmF-jl4J4cTao0oqaJv-45">
          <mxGeometry x="5" y="160" width="40" height="30" as="geometry" />
        </mxCell>
        <mxCell id="EvmF-jl4J4cTao0oqaJv-1" value="Astra client web" style="rounded=1;whiteSpace=wrap;html=1;" vertex="1" parent="1">
          <mxGeometry x="10" y="130" width="120" height="60" as="geometry" />
        </mxCell>
        <mxCell id="EvmF-jl4J4cTao0oqaJv-2" value="Astra client mobile" style="rounded=1;whiteSpace=wrap;html=1;" vertex="1" parent="1">
          <mxGeometry x="10" y="200" width="120" height="60" as="geometry" />
        </mxCell>
        <mxCell id="EvmF-jl4J4cTao0oqaJv-3" value="Point d&#39;entrée des différents services" style="rounded=1;whiteSpace=wrap;html=1;" vertex="1" parent="1">
          <mxGeometry x="180" y="170" width="120" height="60" as="geometry" />
        </mxCell>
        <mxCell id="EvmF-jl4J4cTao0oqaJv-4" value="Service de gestion des utilisateurs" style="rounded=1;whiteSpace=wrap;html=1;" vertex="1" parent="1">
          <mxGeometry x="420" y="10" width="120" height="60" as="geometry" />
        </mxCell>
        <mxCell id="EvmF-jl4J4cTao0oqaJv-5" value="Service de gestion des documents" style="rounded=1;whiteSpace=wrap;html=1;" vertex="1" parent="1">
          <mxGeometry x="420" y="150" width="120" height="60" as="geometry" />
        </mxCell>
        <mxCell id="EvmF-jl4J4cTao0oqaJv-6" value="Service de gestion des organisations" style="rounded=1;whiteSpace=wrap;html=1;" vertex="1" parent="1">
          <mxGeometry x="420" y="80" width="120" height="60" as="geometry" />
        </mxCell>
        <mxCell id="EvmF-jl4J4cTao0oqaJv-7" value="Service de gestion des ressources humaines" style="rounded=1;whiteSpace=wrap;html=1;" vertex="1" parent="1">
          <mxGeometry x="420" y="220" width="120" height="60" as="geometry" />
        </mxCell>
        <mxCell id="EvmF-jl4J4cTao0oqaJv-9" value="" style="endArrow=classic;html=1;rounded=0;" edge="1" parent="1">
          <mxGeometry width="50" height="50" relative="1" as="geometry">
            <mxPoint x="130" y="250" as="sourcePoint" />
            <mxPoint x="180" y="200" as="targetPoint" />
          </mxGeometry>
        </mxCell>
        <mxCell id="EvmF-jl4J4cTao0oqaJv-10" value="" style="endArrow=classic;html=1;rounded=0;entryX=0;entryY=0.5;entryDx=0;entryDy=0;" edge="1" parent="1" target="EvmF-jl4J4cTao0oqaJv-3">
          <mxGeometry width="50" height="50" relative="1" as="geometry">
            <mxPoint x="130" y="160" as="sourcePoint" />
            <mxPoint x="180" y="110" as="targetPoint" />
          </mxGeometry>
        </mxCell>
        <mxCell id="EvmF-jl4J4cTao0oqaJv-11" value="" style="endArrow=classic;html=1;rounded=0;entryX=0;entryY=0.5;entryDx=0;entryDy=0;exitX=1;exitY=0.5;exitDx=0;exitDy=0;" edge="1" parent="1" source="EvmF-jl4J4cTao0oqaJv-3" target="EvmF-jl4J4cTao0oqaJv-5">
          <mxGeometry width="50" height="50" relative="1" as="geometry">
            <mxPoint x="300" y="200" as="sourcePoint" />
            <mxPoint x="440" y="340" as="targetPoint" />
          </mxGeometry>
        </mxCell>
        <mxCell id="EvmF-jl4J4cTao0oqaJv-12" value="" style="endArrow=classic;html=1;rounded=0;entryX=0;entryY=0.5;entryDx=0;entryDy=0;exitX=1;exitY=0.5;exitDx=0;exitDy=0;" edge="1" parent="1" source="EvmF-jl4J4cTao0oqaJv-3" target="EvmF-jl4J4cTao0oqaJv-6">
          <mxGeometry width="50" height="50" relative="1" as="geometry">
            <mxPoint x="300" y="200" as="sourcePoint" />
            <mxPoint x="450" y="350" as="targetPoint" />
          </mxGeometry>
        </mxCell>
        <mxCell id="EvmF-jl4J4cTao0oqaJv-13" value="" style="endArrow=classic;html=1;rounded=0;exitX=1;exitY=0.5;exitDx=0;exitDy=0;entryX=0;entryY=0.5;entryDx=0;entryDy=0;" edge="1" parent="1" source="EvmF-jl4J4cTao0oqaJv-3" target="EvmF-jl4J4cTao0oqaJv-4">
          <mxGeometry width="50" height="50" relative="1" as="geometry">
            <mxPoint x="340" y="240" as="sourcePoint" />
            <mxPoint x="460" y="360" as="targetPoint" />
          </mxGeometry>
        </mxCell>
        <mxCell id="EvmF-jl4J4cTao0oqaJv-14" value="" style="endArrow=classic;html=1;rounded=0;exitX=1;exitY=0.75;exitDx=0;exitDy=0;entryX=1;entryY=0.5;entryDx=0;entryDy=0;" edge="1" parent="1" source="EvmF-jl4J4cTao0oqaJv-4" target="EvmF-jl4J4cTao0oqaJv-6">
          <mxGeometry width="50" height="50" relative="1" as="geometry">
            <mxPoint x="300" y="330" as="sourcePoint" />
            <mxPoint x="350" y="280" as="targetPoint" />
            <Array as="points">
              <mxPoint x="590" y="55" />
              <mxPoint x="590" y="110" />
            </Array>
          </mxGeometry>
        </mxCell>
        <mxCell id="EvmF-jl4J4cTao0oqaJv-15" value="" style="endArrow=classic;html=1;rounded=0;exitX=1;exitY=0.25;exitDx=0;exitDy=0;entryX=1;entryY=0.5;entryDx=0;entryDy=0;" edge="1" parent="1" source="EvmF-jl4J4cTao0oqaJv-5" target="EvmF-jl4J4cTao0oqaJv-4">
          <mxGeometry width="50" height="50" relative="1" as="geometry">
            <mxPoint x="300" y="330" as="sourcePoint" />
            <mxPoint x="650" y="160" as="targetPoint" />
            <Array as="points">
              <mxPoint x="600" y="165" />
              <mxPoint x="600" y="40" />
            </Array>
          </mxGeometry>
        </mxCell>
        <mxCell id="EvmF-jl4J4cTao0oqaJv-16" value="" style="endArrow=classic;html=1;rounded=0;exitX=1;exitY=0.75;exitDx=0;exitDy=0;entryX=1;entryY=0.5;entryDx=0;entryDy=0;" edge="1" parent="1" source="EvmF-jl4J4cTao0oqaJv-5" target="EvmF-jl4J4cTao0oqaJv-7">
          <mxGeometry width="50" height="50" relative="1" as="geometry">
            <mxPoint x="300" y="330" as="sourcePoint" />
            <mxPoint x="350" y="280" as="targetPoint" />
            <Array as="points">
              <mxPoint x="590" y="195" />
              <mxPoint x="590" y="250" />
            </Array>
          </mxGeometry>
        </mxCell>
        <mxCell id="EvmF-jl4J4cTao0oqaJv-17" value="" style="endArrow=classic;html=1;rounded=0;exitX=1;exitY=0.5;exitDx=0;exitDy=0;entryX=1;entryY=0.5;entryDx=0;entryDy=0;" edge="1" parent="1" source="EvmF-jl4J4cTao0oqaJv-5" target="EvmF-jl4J4cTao0oqaJv-18">
          <mxGeometry width="50" height="50" relative="1" as="geometry">
            <mxPoint x="300" y="330" as="sourcePoint" />
            <mxPoint x="550" y="320" as="targetPoint" />
            <Array as="points">
              <mxPoint x="600" y="180" />
              <mxPoint x="600" y="320" />
            </Array>
          </mxGeometry>
        </mxCell>
        <mxCell id="EvmF-jl4J4cTao0oqaJv-18" value="Service d&#39;email" style="rounded=1;whiteSpace=wrap;html=1;" vertex="1" parent="1">
          <mxGeometry x="420" y="290" width="120" height="60" as="geometry" />
        </mxCell>
        <mxCell id="EvmF-jl4J4cTao0oqaJv-19" value="" style="endArrow=classic;html=1;rounded=0;entryX=0.25;entryY=0;entryDx=0;entryDy=0;exitX=1;exitY=0.5;exitDx=0;exitDy=0;" edge="1" parent="1" source="EvmF-jl4J4cTao0oqaJv-3" target="EvmF-jl4J4cTao0oqaJv-23">
          <mxGeometry width="50" height="50" relative="1" as="geometry">
            <mxPoint x="300" y="390" as="sourcePoint" />
            <mxPoint x="430" y="420" as="targetPoint" />
          </mxGeometry>
        </mxCell>
        <mxCell id="EvmF-jl4J4cTao0oqaJv-20" value="" style="endArrow=classic;html=1;rounded=0;entryX=0.75;entryY=0;entryDx=0;entryDy=0;exitX=1;exitY=0.4;exitDx=0;exitDy=0;exitPerimeter=0;" edge="1" parent="1" source="EvmF-jl4J4cTao0oqaJv-5" target="EvmF-jl4J4cTao0oqaJv-23">
          <mxGeometry width="50" height="50" relative="1" as="geometry">
            <mxPoint x="300" y="390" as="sourcePoint" />
            <mxPoint x="550" y="420" as="targetPoint" />
            <Array as="points">
              <mxPoint x="610" y="174" />
              <mxPoint x="610" y="320" />
            </Array>
          </mxGeometry>
        </mxCell>
        <mxCell id="EvmF-jl4J4cTao0oqaJv-23" value="API passerelle" style="rounded=0;whiteSpace=wrap;html=1;" vertex="1" parent="1">
          <mxGeometry x="420" y="410" width="120" height="60" as="geometry" />
        </mxCell>
        <mxCell id="EvmF-jl4J4cTao0oqaJv-25" value="Registre de service" style="rounded=0;whiteSpace=wrap;html=1;" vertex="1" parent="1">
          <mxGeometry x="190" y="410" width="120" height="60" as="geometry" />
        </mxCell>
        <mxCell id="EvmF-jl4J4cTao0oqaJv-26" value="" style="endArrow=classic;html=1;rounded=0;exitX=0;exitY=0.5;exitDx=0;exitDy=0;" edge="1" parent="1" source="EvmF-jl4J4cTao0oqaJv-23">
          <mxGeometry width="50" height="50" relative="1" as="geometry">
            <mxPoint x="420" y="680" as="sourcePoint" />
            <mxPoint x="310" y="440" as="targetPoint" />
          </mxGeometry>
        </mxCell>
        <mxCell id="EvmF-jl4J4cTao0oqaJv-28" value="&lt;div&gt;Microservice de &lt;br&gt;&lt;/div&gt;&lt;div&gt;chat&lt;br&gt;&lt;/div&gt;" style="rounded=0;whiteSpace=wrap;html=1;" vertex="1" parent="1">
          <mxGeometry x="390" y="510" width="120" height="60" as="geometry" />
        </mxCell>
        <mxCell id="EvmF-jl4J4cTao0oqaJv-29" value="" style="endArrow=classic;html=1;rounded=0;entryX=0.5;entryY=0;entryDx=0;entryDy=0;" edge="1" parent="1" target="EvmF-jl4J4cTao0oqaJv-28">
          <mxGeometry width="50" height="50" relative="1" as="geometry">
            <mxPoint x="480" y="470" as="sourcePoint" />
            <mxPoint x="510" y="390" as="targetPoint" />
          </mxGeometry>
        </mxCell>
        <mxCell id="EvmF-jl4J4cTao0oqaJv-30" value="" style="edgeStyle=orthogonalEdgeStyle;rounded=0;orthogonalLoop=1;jettySize=auto;html=1;" edge="1" parent="1" target="EvmF-jl4J4cTao0oqaJv-31">
          <mxGeometry relative="1" as="geometry">
            <mxPoint x="450" y="570" as="sourcePoint" />
          </mxGeometry>
        </mxCell>
        <mxCell id="EvmF-jl4J4cTao0oqaJv-31" value="Serveur de base de données pour chat" style="shape=cylinder3;whiteSpace=wrap;html=1;boundedLbl=1;backgroundOutline=1;size=15;" vertex="1" parent="1">
          <mxGeometry x="395" y="600" width="110" height="90" as="geometry" />
        </mxCell>
        <mxCell id="EvmF-jl4J4cTao0oqaJv-34" value="" style="endArrow=classic;html=1;rounded=0;entryX=0.5;entryY=0;entryDx=0;entryDy=0;exitX=0.5;exitY=1;exitDx=0;exitDy=0;" edge="1" parent="1" target="EvmF-jl4J4cTao0oqaJv-33">
          <mxGeometry width="50" height="50" relative="1" as="geometry">
            <mxPoint x="550" y="470" as="sourcePoint" />
            <mxPoint x="640" y="390" as="targetPoint" />
          </mxGeometry>
        </mxCell>
        <mxCell id="EvmF-jl4J4cTao0oqaJv-43" value="" style="endArrow=classic;html=1;rounded=0;entryX=1;entryY=0.5;entryDx=0;entryDy=0;" edge="1" parent="1" target="EvmF-jl4J4cTao0oqaJv-23">
          <mxGeometry width="50" height="50" relative="1" as="geometry">
            <mxPoint x="540" y="170" as="sourcePoint" />
            <mxPoint x="440" y="330" as="targetPoint" />
            <Array as="points">
              <mxPoint x="620" y="170" />
              <mxPoint x="620" y="440" />
            </Array>
          </mxGeometry>
        </mxCell>
        <mxCell id="EvmF-jl4J4cTao0oqaJv-44" value="" style="swimlane;startSize=0;fillColor=#d5e8d4;strokeColor=#82b366;" vertex="1" parent="1">
          <mxGeometry x="140" width="580" height="390" as="geometry" />
        </mxCell>
        <mxCell id="EvmF-jl4J4cTao0oqaJv-42" value="&lt;div&gt;Infrastructures héritées&lt;/div&gt;" style="text;html=1;align=center;verticalAlign=middle;resizable=0;points=[];autosize=1;strokeColor=#82b366;fillColor=#d5e8d4;" vertex="1" parent="EvmF-jl4J4cTao0oqaJv-44">
          <mxGeometry x="10" y="10" width="140" height="20" as="geometry" />
        </mxCell>
        <mxCell id="EvmF-jl4J4cTao0oqaJv-46" value="" style="endArrow=none;html=1;rounded=0;exitX=0.5;exitY=1;exitDx=0;exitDy=0;entryX=0.75;entryY=0;entryDx=0;entryDy=0;" edge="1" parent="1" source="EvmF-jl4J4cTao0oqaJv-23" target="EvmF-jl4J4cTao0oqaJv-45">
          <mxGeometry width="50" height="50" relative="1" as="geometry">
            <mxPoint x="480" y="470" as="sourcePoint" />
            <mxPoint x="250" y="510" as="targetPoint" />
          </mxGeometry>
        </mxCell>
        <mxCell id="EvmF-jl4J4cTao0oqaJv-56" value="" style="swimlane;startSize=0;fillColor=#e1d5e7;strokeColor=#9673a6;strokeWidth=3;" vertex="1" parent="1">
          <mxGeometry x="540" y="500" width="180" height="200" as="geometry" />
        </mxCell>
        <mxCell id="EvmF-jl4J4cTao0oqaJv-33" value="&lt;div&gt;Microservice d&#39;agenda&lt;br&gt;&lt;/div&gt;" style="rounded=0;whiteSpace=wrap;html=1;" vertex="1" parent="EvmF-jl4J4cTao0oqaJv-56">
          <mxGeometry x="50" y="10" width="120" height="60" as="geometry" />
        </mxCell>
        <mxCell id="EvmF-jl4J4cTao0oqaJv-36" value="Serveur de base de données pour agenda" style="shape=cylinder3;whiteSpace=wrap;html=1;boundedLbl=1;backgroundOutline=1;size=15;" vertex="1" parent="EvmF-jl4J4cTao0oqaJv-56">
          <mxGeometry x="55" y="100" width="110" height="90" as="geometry" />
        </mxCell>
        <mxCell id="EvmF-jl4J4cTao0oqaJv-35" value="" style="edgeStyle=orthogonalEdgeStyle;rounded=0;orthogonalLoop=1;jettySize=auto;html=1;exitX=0.5;exitY=1;exitDx=0;exitDy=0;" edge="1" parent="EvmF-jl4J4cTao0oqaJv-56" target="EvmF-jl4J4cTao0oqaJv-36" source="EvmF-jl4J4cTao0oqaJv-33">
          <mxGeometry relative="1" as="geometry">
            <mxPoint x="10" y="70" as="sourcePoint" />
          </mxGeometry>
        </mxCell>
        <mxCell id="EvmF-jl4J4cTao0oqaJv-49" value="&lt;div&gt;port &lt;br&gt;&lt;/div&gt;&lt;div&gt;8082&lt;/div&gt;" style="text;html=1;align=center;verticalAlign=middle;resizable=0;points=[];autosize=1;strokeColor=#9673a6;fillColor=#e1d5e7;" vertex="1" parent="EvmF-jl4J4cTao0oqaJv-56">
          <mxGeometry x="10" y="160" width="40" height="30" as="geometry" />
        </mxCell>
        <mxCell id="EvmF-jl4J4cTao0oqaJv-55" value="" style="swimlane;startSize=0;fillColor=#e1d5e7;strokeColor=#9673a6;strokeWidth=3;" vertex="1" parent="1">
          <mxGeometry x="340" y="500" width="180" height="200" as="geometry" />
        </mxCell>
        <mxCell id="EvmF-jl4J4cTao0oqaJv-48" value="&lt;div&gt;port &lt;br&gt;&lt;/div&gt;&lt;div&gt;8081&lt;/div&gt;" style="text;html=1;align=center;verticalAlign=middle;resizable=0;points=[];autosize=1;strokeColor=#9673a6;fillColor=#e1d5e7;" vertex="1" parent="EvmF-jl4J4cTao0oqaJv-55">
          <mxGeometry x="8" y="160" width="40" height="30" as="geometry" />
        </mxCell>
        <mxCell id="EvmF-jl4J4cTao0oqaJv-57" value="Conteneur Docker" style="rounded=0;whiteSpace=wrap;html=1;fillColor=#e1d5e7;strokeColor=#9673a6;" vertex="1" parent="1">
          <mxGeometry x="200" y="700" width="120" height="30" as="geometry" />
        </mxCell>
        <mxCell id="EvmF-jl4J4cTao0oqaJv-58" value="Conteneur Docker" style="rounded=0;whiteSpace=wrap;html=1;fillColor=#e1d5e7;strokeColor=#9673a6;" vertex="1" parent="1">
          <mxGeometry x="400" y="700" width="120" height="30" as="geometry" />
        </mxCell>
        <mxCell id="EvmF-jl4J4cTao0oqaJv-59" value="Conteneur Docker" style="rounded=0;whiteSpace=wrap;html=1;fillColor=#e1d5e7;strokeColor=#9673a6;" vertex="1" parent="1">
          <mxGeometry x="600" y="700" width="120" height="30" as="geometry" />
        </mxCell>
      </root>
    </mxGraphModel>
  </diagram>
</mxfile>
